<svg xmlns="http://www.w3.org/2000/svg" viewBox="0 0 24.933 22.34"><title>empty-box</title><path d="M19.067,22.34a.474.474,0,1,1,0-.948h1.467a.474.474,0,1,1,0,.948Zm-3.67,0a.474.474,0,1,1,0-.948h1.467a.474.474,0,1,1,0,.948Zm-3.669,0a.474.474,0,1,1,0-.948H13.2a.474.474,0,1,1,0,.948Zm-3.67,0a.474.474,0,1,1,0-.948H9.525a.474.474,0,1,1,0,.948Zm-3.669,0a.474.474,0,1,1,0-.948H5.856a.474.474,0,1,1,0,.948Zm18.34-.063a.474.474,0,0,1-.144-.926.87.87,0,0,0,.588-.682.477.477,0,0,1,.466-.4.516.516,0,0,1,.388.2.465.465,0,0,1,.082.354,1.826,1.826,0,0,1-1.235,1.432A.485.485,0,0,1,22.729,22.277Zm-20.536,0a.457.457,0,0,1-.147-.023A1.825,1.825,0,0,1,.821,20.812a.476.476,0,0,1,.4-.544h.013a.493.493,0,0,1,.53.395.868.868,0,0,0,.583.686.474.474,0,0,1-.149.925Zm21.466-3.253a.475.475,0,0,1-.474-.475V17.079a.475.475,0,1,1,.949,0v1.467A.475.475,0,0,1,23.659,19.021Zm-22.386-.01A.474.474,0,0,1,.8,18.536V17.068a.474.474,0,1,1,.948,0v1.468A.475.475,0,0,1,1.273,19.011Zm22.386-3.66a.475.475,0,0,1-.474-.475V13.409a.475.475,0,0,1,.949,0v1.467A.475.475,0,0,1,23.659,15.351Zm-22.386-.01A.474.474,0,0,1,.8,14.866V13.4a.474.474,0,1,1,.948,0v1.467A.475.475,0,0,1,1.273,15.341Zm7.821-2.962a1.037,1.037,0,0,1,0-2.073h7.495a1.037,1.037,0,0,1,0,2.073Zm0-1.5a.463.463,0,1,0,0,.925h7.495a.463.463,0,0,0,0-.925Zm14.565.8a.475.475,0,0,1-.474-.475V9.74a.475.475,0,0,1,.949,0v1.467A.475.475,0,0,1,23.659,11.682Zm-22.386-.01A.474.474,0,0,1,.8,11.2V9.729a.474.474,0,1,1,.948,0V11.2A.475.475,0,0,1,1.273,11.672ZM23.659,8a.474.474,0,0,1-.474-.474V6.469l.283-.125a.861.861,0,0,0,.367-.306.475.475,0,0,1,.787.531,1.8,1.8,0,0,1-.535.518l.047.441A.475.475,0,0,1,23.659,8ZM1.273,8A.474.474,0,0,1,.8,7.527V7a1.061,1.061,0,0,1-.489-.434.474.474,0,1,1,.787-.53.862.862,0,0,0,.368.306l.282.124V7.527A.475.475,0,0,1,1.273,8Zm17.189-.683a.474.474,0,0,1,0-.948h1.5a.474.474,0,1,1,0,.948Zm-3.747,0a.474.474,0,1,1,0-.948h1.5a.474.474,0,0,1,0,.948Zm-3.747,0a.474.474,0,1,1,0-.948h1.5a.474.474,0,0,1,0,.948Zm-3.748,0a.474.474,0,0,1,0-.948h1.5a.474.474,0,1,1,0,.948Zm-3.747,0a.474.474,0,1,1,0-.948h1.5a.474.474,0,0,1,0,.948ZM24.458,4.66a.474.474,0,0,1-.474-.474V2.745a.475.475,0,0,1,.949,0V4.186A.475.475,0,0,1,24.458,4.66ZM.475,4.649A.474.474,0,0,1,0,4.176V2.734a.475.475,0,0,1,.949,0V4.176A.474.474,0,0,1,.475,4.649Zm23.46-3.425a.475.475,0,0,1-.29-.1.851.851,0,0,0-.517-.177h-.572a.474.474,0,1,1,0-.948h.57a1.788,1.788,0,0,1,1.1.373.475.475,0,0,1-.289.851ZM1.007,1.218A.475.475,0,0,1,.72.364,1.794,1.794,0,0,1,1.807,0h.581a.474.474,0,1,1,0,.948H1.807a.841.841,0,0,0-.514.174A.474.474,0,0,1,1.007,1.218ZM18.954.948a.474.474,0,1,1,0-.948H20.4a.474.474,0,1,1,0,.948Zm-3.6,0a.474.474,0,1,1,0-.948h1.441a.474.474,0,1,1,0,.948Zm-3.6,0a.474.474,0,0,1,0-.948h1.44a.474.474,0,1,1,0,.948Zm-3.6,0A.474.474,0,0,1,8.15,0H9.591a.474.474,0,1,1,0,.948Zm-3.6,0a.474.474,0,1,1,0-.948h1.44a.474.474,0,1,1,0,.948Z" style="fill:#00c0a5"/></svg>