<svg id="Layer_1" data-name="Layer 1" xmlns="http://www.w3.org/2000/svg" viewBox="0 0 22 16.031"><title>paper arrow</title><path d="M5.891,9.887c.009.032.02.06.03.092a5.518,5.518,0,0,1-1.413,2.382A4.032,4.032,0,0,1,2.7,13.373v1.605a.364.364,0,0,1-.6.273L.123,13.507a.363.363,0,0,1,0-.545l1.968-1.744a.364.364,0,0,1,.605.273v1.126a3.385,3.385,0,0,0,1.309-.784A4.819,4.819,0,0,0,5.248,9.7c.05-.165.128-.633.21-1.129l.075-.453.011.06C5.635,8.719,5.757,9.4,5.891,9.887ZM22,3.437V15.3a.728.728,0,0,1-.728.728H10.063a.728.728,0,0,1-.728-.728V3.549c-1.567.022-2.359,1.61-2.742,2.995-.121.438-.234,1.063-.321,1.575l-.01-.061-.086-.511c-.093-.565-.167-1.012-.231-1.222-.007-.023-.017-.043-.024-.066C6.563,4.025,7.764,2.808,9.335,2.8V.728A.728.728,0,0,1,10.063,0h8.5a.359.359,0,0,1,.257.107L21.893,3.18A.359.359,0,0,1,22,3.437Zm-.728.978H18.313a.728.728,0,0,1-.728-.728V.728H10.427a.364.364,0,0,0-.364.364V14.938a.364.364,0,0,0,.364.364H20.908a.364.364,0,0,0,.364-.364Zm0-.728-1.6-1.632L18.314.728v2.6a.364.364,0,0,0,.364.364Z" style="fill:#ccc"/><path d="M12.31,7.027H19a.546.546,0,0,1,0,1.092H12.31a.546.546,0,1,1,0-1.092Zm0,3.65H19a.547.547,0,0,0,0-1.093H12.31a.547.547,0,0,0,0,1.093Zm6.714,1.465H12.331a.547.547,0,1,0,0,1.093h6.693a.547.547,0,1,0,0-1.093ZM6.593,9.693c-.121-.437-.234-1.061-.321-1.574l-.01-.061-.086-.511c-.093-.565-.167-1.012-.231-1.222-.007-.023-.017-.043-.024-.066A5.51,5.51,0,0,0,4.507,3.877,4.025,4.025,0,0,0,2.7,2.865V1.477a.364.364,0,0,0-.6-.273L.123,2.948a.363.363,0,0,0,0,.545L2.091,5.236A.363.363,0,0,0,2.7,4.964V3.621a3.385,3.385,0,0,1,1.309.784A4.819,4.819,0,0,1,5.248,6.537c.05.165.128.633.209,1.129l.076.453.011.06c.091.54.213,1.222.347,1.708.009.032.02.06.03.092.642,2.234,1.843,3.451,3.414,3.456v-.747C7.768,12.667,6.976,11.078,6.593,9.693Z" style="fill:#00c0a5"/></svg>